<?xml version="1.0" standalone="no"?>
<!DOCTYPE svg PUBLIC "-//W3C//DTD SVG 20010904//EN"
 "http://www.w3.org/TR/2001/REC-SVG-20010904/DTD/svg10.dtd">
<svg version="1.0" xmlns="http://www.w3.org/2000/svg"
 width="332.000000pt" height="332.000000pt" viewBox="0 0 332.000000 332.000000"
 preserveAspectRatio="xMidYMid meet">
<metadata>
Created by potrace 1.14, written by Peter Selinger 2001-2017
</metadata>
<g transform="translate(0.000000,332.000000) scale(0.100000,-0.100000)"
fill="#000000" stroke="none">
<path d="M1308 3201 c-142 -65 -260 -120 -262 -122 -3 -2 112 -123 254 -269
l259 -265 1 80 c1 44 7 218 13 388 8 203 9 307 2 306 -5 0 -126 -54 -267 -118z"/>
<path d="M1724 3244 c3 -44 13 -302 21 -574 9 -272 19 -516 23 -542 l7 -46
171 176 171 177 -23 363 c-12 200 -24 365 -26 368 -7 6 -302 141 -328 149 -22
7 -22 7 -16 -71z"/>
<path d="M2173 3104 c4 -11 33 -120 66 -243 34 -123 63 -226 65 -228 4 -4 279
282 283 295 2 4 -88 48 -198 97 -243 109 -222 101 -216 79z"/>
<path d="M693 2923 l-192 -87 157 -161 c86 -89 317 -327 512 -528 l355 -366 6
92 c4 51 7 151 7 222 l1 130 -317 389 c-174 214 -321 391 -327 393 -5 1 -96
-36 -202 -84z"/>
<path d="M2237 2314 l-458 -565 7 -215 c5 -132 11 -213 17 -211 5 1 250 250
543 552 l533 550 1 188 0 188 -85 40 c-47 21 -89 39 -93 39 -4 0 -213 -255
-465 -566z"/>
<path d="M430 2460 l0 -310 248 6 c136 4 249 8 250 10 5 3 -487 604 -493 604
-3 0 -5 -140 -5 -310z"/>
<path d="M2336 1633 l-529 -646 17 -461 c9 -254 16 -473 16 -488 0 -16 5 -28
13 -28 16 0 179 105 261 168 94 72 240 217 325 323 258 319 405 704 431 1122
11 183 13 657 2 657 -4 0 -245 -291 -536 -647z"/>
<path d="M433 1793 c7 -348 36 -519 129 -760 107 -278 253 -498 474 -714 154
-149 402 -327 423 -303 4 5 18 304 30 664 12 360 24 680 27 711 l6 56 -204
249 -203 248 -325 53 c-179 28 -333 52 -344 52 -18 1 -18 -9 -13 -256z"/>
</g>
</svg>
