<svg xmlns="http://www.w3.org/2000/svg" xmlns:xlink="http://www.w3.org/1999/xlink" viewBox="0 0 254.12 116.89">
  <defs>
    <linearGradient id="a" x1="47.36" y1="78.67" x2="46.84" y2="18.41" gradientUnits="userSpaceOnUse">
      <stop offset="0" stop-color="#3e87cb"/>
      <stop offset=".41" stop-color="#0067b9"/>
      <stop offset="1" stop-color="#003865"/>
    </linearGradient>
    <linearGradient id="b" x1="6.41" y1="79.02" x2="5.89" y2="18.77" xlink:href="#a"/>
    <linearGradient id="c" x1="36.22" y1="78.77" x2="35.7" y2="18.51" xlink:href="#a"/>
    <linearGradient id="d" x1="14.68" y1="78.95" x2="14.16" y2="18.69" xlink:href="#a"/>
    <linearGradient id="e" x1="46.08" y1="78.68" x2="45.56" y2="18.42" xlink:href="#a"/>
    <linearGradient id="f" x1="21.75" y1="78.89" x2="21.23" y2="18.63" xlink:href="#a"/>
    <linearGradient id="g" x1="13.28" y1="78.97" x2="12.76" y2="18.71" xlink:href="#a"/>
    <linearGradient id="h" x1="45.88" y1="78.68" x2="45.36" y2="18.43" xlink:href="#a"/>
    <style>
      .a{fill:#003865}.j{fill:#0067b9}
    </style>
  </defs>
  <path class="a" d="M2.22 96h4.52v20.56H2.22zM20.69 96h4.17l9.63 12.66V96H39v20.56h-3.89l-10-13.07v13.07h-4.42zM60 116.83a13.57 13.57 0 01-4.61-.81 11.94 11.94 0 01-4.11-2.48l2.67-3.2a13.12 13.12 0 002.89 1.82 7.75 7.75 0 003.25.68 3.84 3.84 0 002.18-.52 1.6 1.6 0 00.78-1.42v-.06a1.78 1.78 0 00-.16-.78 1.67 1.67 0 00-.62-.63 6.88 6.88 0 00-1.26-.59c-.54-.19-1.25-.4-2.11-.61a28.35 28.35 0 01-2.83-.85 8 8 0 01-2.07-1.16 4.69 4.69 0 01-1.37-1.72 5.9 5.9 0 01-.49-2.56v-.06a5.94 5.94 0 01.53-2.53 5.78 5.78 0 011.47-2 6.55 6.55 0 012.26-1.26 9.25 9.25 0 012.91-.44 11.81 11.81 0 017.63 2.61l-2.35 3.41a14.54 14.54 0 00-2.7-1.48 6.76 6.76 0 00-2.64-.55 3.19 3.19 0 00-2 .52 1.56 1.56 0 00-.66 1.27v.06a1.83 1.83 0 00.2.87 1.7 1.7 0 00.69.66 6.39 6.39 0 001.37.56c.58.17 1.31.38 2.19.61a22 22 0 012.78.93 7.6 7.6 0 012.06 1.23 4.74 4.74 0 011.27 1.69 5.82 5.82 0 01.43 2.32v.06a6.39 6.39 0 01-.56 2.72 5.59 5.59 0 01-1.54 2 7.22 7.22 0 01-2.37 1.24 10.46 10.46 0 01-3.11.45zM88.88 116.86a9 9 0 01-6.52-2.29Q80 112.28 80 107.73V96h4.5v11.63a5.44 5.44 0 001.17 3.8 4.19 4.19 0 003.26 1.28 4.29 4.29 0 003.26-1.23 5.16 5.16 0 001.18-3.7V96h4.52v11.6a11.9 11.9 0 01-.63 4.08 7.65 7.65 0 01-1.81 2.9 7.36 7.36 0 01-2.85 1.73 11.44 11.44 0 01-3.72.55zM111.31 96h9.4a8.11 8.11 0 016 2.09 6.36 6.36 0 011.76 4.7 6.46 6.46 0 01-1.22 4.07 7.06 7.06 0 01-3.19 2.31l5 7.34h-5.28l-4.4-6.51h-3.55v6.58h-4.52zm9.1 10a3.75 3.75 0 002.57-.8 2.66 2.66 0 00.9-2.11V103a2.64 2.64 0 00-.94-2.2 4.17 4.17 0 00-2.62-.74h-4.49V106zM148.4 95.84h4.17l8.81 20.7h-4.73l-1.88-4.61h-8.69l-1.88 4.61h-4.61zm4.75 12.09l-2.73-6.66-2.73 6.66zM173.36 96h4.17l9.63 12.66V96h4.46v20.56h-3.85l-10-13.07v13.07h-4.46zM215 116.89a10.58 10.58 0 01-4.19-.82 10.29 10.29 0 01-3.35-2.25 10.1 10.1 0 01-2.2-3.36 10.79 10.79 0 01-.8-4.14v-.06a10.74 10.74 0 01.8-4.13 10.46 10.46 0 012.2-3.37 10.22 10.22 0 013.37-2.29 11 11 0 014.35-.84 13.31 13.31 0 012.63.24 10.94 10.94 0 012.16.64 10 10 0 011.79 1 11.86 11.86 0 011.53 1.29l-2.88 3.32a10.94 10.94 0 00-2.45-1.7 6.3 6.3 0 00-2.81-.62 5.75 5.75 0 00-2.39.5 5.57 5.57 0 00-1.9 1.38 6.58 6.58 0 00-1.23 2 7 7 0 00-.44 2.48v.06a7.19 7.19 0 00.44 2.5 6.49 6.49 0 001.22 2 5.61 5.61 0 004.3 1.91 6.17 6.17 0 003-.65 11.3 11.3 0 002.42-1.76l2.88 2.91a14.59 14.59 0 01-1.64 1.53 10.12 10.12 0 01-1.87 1.16 9.88 9.88 0 01-2.21.73 13.23 13.23 0 01-2.73.34zM235.84 96h15.48v4h-11v4.17H250v4h-9.69v4.31h11.16v4h-15.63z"/>
  <g>
    <path fill="url(#a)" d="M44.87 16.47l6.88-7.09-10.02-4.52 3.14 11.61z"/>
    <path fill="url(#b)" d="M11.94 27.77L0 13.18v14.78l11.94-.19z"/>
    <path fill="url(#c)" d="M32.04 29.71l8.26-8.52-1.08-17.47L30.96 0l1.08 29.71z"/>
    <path fill="url(#d)" d="M26.58 26.59L11.07 7.43l-9.33 4.21 24.47 25.2.37-10.25z"/>
    <path d="M33 56l.85 23.55A47.39 47.39 0 0058.51 38V24.86z" fill="url(#e)"/>
    <path fill="url(#f)" d="M26.88 18.46L27.55 0 14.63 5.82l12.25 12.64z"/>
    <path d="M25.92 44.85L16.3 33.1 0 30.49V38a47.38 47.38 0 0024.65 41.59z" fill="url(#g)"/>
    <path fill="url(#h)" d="M58.51 12.42l-4.14-1.86-22.04 27.21.38 10.33 25.8-26.58v-9.1z"/>
  </g>
  <g>
    <path class="a" d="M183.08 24.86a31.05 31.05 0 00-3.08-3.35 34 34 0 00-11.29-7 39.59 39.59 0 00-14.39-2.54h-26.09v12.89z"/>
    <path class="j" d="M186.73 30.72h-18c.05.06.12.11.17.16a19.15 19.15 0 014.12 6.41 21.81 21.81 0 011.48 8.13v.2a21.37 21.37 0 01-1.48 8.13 19.32 19.32 0 01-4.12 6.31 17.47 17.47 0 01-6.36 4.11 22.67 22.67 0 01-8.22 1.44H143V30.72h-14.77V78.9h26.12a39 39 0 0014.39-2.58A34.58 34.58 0 00180 69.24a31 31 0 007.32-10.62 33.63 33.63 0 002.58-13.2v-.19a33.28 33.28 0 00-2.58-13.15c-.17-.46-.38-.91-.59-1.36z"/>
  </g>
  <path class="j" d="M250.79 49.87a22.62 22.62 0 00-9.15-6A18.27 18.27 0 00245 41.6a15.21 15.21 0 002.75-3.11 15.69 15.69 0 001.91-4 16.64 16.64 0 00.71-5.07v-.19a15.47 15.47 0 00-4.59-11.39q-5.91-5.93-17.47-5.93h-31v12.95h28.89q4.68 0 7.17 1.77a5.88 5.88 0 012.49 5.11v.2a5.78 5.78 0 01-2.87 5.4 15.34 15.34 0 01-7.76 1.66h-13.58v-8.28H197.3V78.9h31.8a43 43 0 0010.26-1.14 23.85 23.85 0 007.93-3.45 15.55 15.55 0 005.06-5.74 17.31 17.31 0 001.77-8v-.19q0-6.73-3.33-10.51zm-11.21 8.85a6.06 6.06 0 01-2.78 5.5 14.15 14.15 0 01-7.65 1.78h-17.5V51.26h17q5.75 0 8.32 2a6.31 6.31 0 012.59 5.31zM99.88 39.12a49.59 49.59 0 01-8.33-2.68 5.72 5.72 0 01.1-10.94s2.38-1.11 10.13-1.11h.22c2.86 0 5.84 0 8.62.11 2.46.08 5 .15 7.46.15h3.08V12h-3.08c-2.27 0-4.61-.07-7.1-.14-11.66-.34-23.72-.69-30.75 6.14-3.34 3.23-5 7.56-5 12.86 0 14.91 12.94 18.26 21.51 20.48C107 54 109.08 55.5 109 60.14c0 2.73-1.17 4.35-3.81 5.42-6.26 2.52-18.38.1-25.77-7.4l-9 8.87a42.27 42.27 0 0029 12.15 28.31 28.31 0 0010.58-1.9 17.87 17.87 0 0011.72-17c.11-15.47-13.1-18.89-21.84-21.16z"/>
</svg>
